<svg id="visual" viewBox="0 0 1500 500" width="1500" height="500" xmlns="http://www.w3.org/2000/svg" xmlns:xlink="http://www.w3.org/1999/xlink" version="1.1"><rect x="0" y="0" width="1500" height="500" fill="#FFFFFF"></rect><defs><linearGradient id="grad1_0" x1="66.7%" y1="0%" x2="100%" y2="100%"><stop offset="-10%" stop-color="#ffffff" stop-opacity="1"></stop><stop offset="110%" stop-color="#ffffff" stop-opacity="1"></stop></linearGradient></defs><defs><linearGradient id="grad2_0" x1="0%" y1="0%" x2="33.3%" y2="100%"><stop offset="-10%" stop-color="#ffffff" stop-opacity="1"></stop><stop offset="110%" stop-color="#ffffff" stop-opacity="1"></stop></linearGradient></defs><g transform="translate(1500, 0)"><path d="M0 375C-50.6 339.9 -101.3 304.9 -160.5 278C-219.7 251.1 -287.6 232.5 -324.8 187.5C-361.9 142.5 -368.5 71.3 -375 0L0 0Z" fill="#F76045"></path></g><g transform="translate(0, 500)"><path d="M0 -375C67.1 -366.1 134.2 -357.1 187.5 -324.8C240.8 -292.4 280.2 -236.5 309.2 -178.5C338.1 -120.5 356.6 -60.2 375 0L0 0Z" fill="#F76045"></path></g></svg>