<svg id="visual" viewBox="0 0 1400 400" width="1400" height="400" xmlns="http://www.w3.org/2000/svg" xmlns:xlink="http://www.w3.org/1999/xlink" version="1.1"><rect x="0" y="0" width="1400" height="400" fill="#ffffff"></rect><defs><linearGradient id="grad1_0" x1="71.4%" y1="100%" x2="100%" y2="0%"><stop offset="-20%" stop-color="#ffffff" stop-opacity="1"></stop><stop offset="120%" stop-color="#ffffff" stop-opacity="1"></stop></linearGradient></defs><defs><linearGradient id="grad2_0" x1="0%" y1="100%" x2="28.6%" y2="0%"><stop offset="-20%" stop-color="#ffffff" stop-opacity="1"></stop><stop offset="120%" stop-color="#ffffff" stop-opacity="1"></stop></linearGradient></defs><g transform="translate(1400, 400)"><path d="M-220 0C-214.4 -38.7 -208.8 -77.5 -190.5 -110C-172.3 -142.5 -141.4 -168.9 -107.5 -186.2C-73.6 -203.5 -36.8 -211.7 0 -220L0 0Z" fill="#06003d"></path></g><g transform="translate(0, 0)"><path d="M220 0C209.9 35.8 199.8 71.5 182.7 105.5C165.7 139.5 141.6 171.7 110 190.5C78.4 209.3 39.2 214.7 0 220L0 0Z" fill="#06003d"></path></g></svg>